<?xml version="1.0" encoding="utf-8"?>
<!-- Generator: Adobe Illustrator 26.0.3, SVG Export Plug-In . SVG Version: 6.00 Build 0)  -->
<svg version="1.0" id="Layer_1" xmlns="http://www.w3.org/2000/svg" xmlns:xlink="http://www.w3.org/1999/xlink" x="0px" y="0px"
	 viewBox="0 0 717.2 539.2" style="enable-background:new 0 0 717.2 539.2;" xml:space="preserve">
<style type="text/css">
	.st0{fill:#1D355F;}
</style>
<g>
	<path class="st0" d="M177.5,311.1c-1.6,1.7-1.9,3.6-1.9,12.6v14.9c0,9.7-0.4,14.3-0.5,15.4c-1.1,8.1-5.1,16.9-23.1,16.9
		c-14.9,0-20.3-5.9-22.4-12.4c-1-3.4-1.1-8.3-1.1-13.6v-24.3c0-4.4,0-7.4-1.3-9c-1-1.2-2.7-2.2-6.1-2.8v-1.2
		c3.9,0.3,8.1,0.4,11.5,0.4s7.6,0,11.8-0.4v1.2c-1.3,0.3-4.5,1-5.8,2.3c-1.6,1.8-1.9,3.8-1.9,12.7v22c0,12.7,0.8,21.5,16.2,21.5
		s16.2-8.9,16.2-21.5v-26.8c0-3.5-0.1-5.9-1.2-7.4c-1-1.1-2.8-2.1-6.2-2.6v-1.2c3.9,0.3,7.3,0.4,10.7,0.4s6.8,0,10.9-0.4v1.2
		C182,309.1,178.7,309.9,177.5,311.1"/>
	<path class="st0" d="M220.5,369.9c-1.9,0-6.1,0.1-10,0.3v-1.2c1.5-0.1,2.8-0.7,4-1.6c1.7-1.7,1.9-4.7,2-9.2c0.1-2.1,0.1-5.5,0.1-9
		c0.1-2.3-0.1-4.5-0.4-6.8c-0.8-5.8-4.5-8.2-9.9-8.2c-3.2,0-5.7,0.4-8,1.8v21.3c0,7.8,0.5,8,0.9,9c0.8,1.6,3.6,2.4,5.1,2.7v1.2
		c-3.3-0.2-6.9-0.3-10.5-0.3c-1.9,0-6.2,0.1-9.9,0.3v-1.2c2.6-0.5,4.2-1.2,5.3-2.5c1.5-1.7,1.7-4.6,1.7-14.5v-10.3
		c0-4.9-0.4-8.1-6.8-9.2v-0.9c3.3-0.1,6.5-0.4,9.7-0.8c1.4-0.2,2.7-0.6,4-1.2l0.6,0.4l-0.3,5.2c3.4-3.4,8-5.3,12.8-5.2
		c6.4,0,10.9,2.7,12.5,8.5c0.4,2.3,0.7,4.7,0.7,7v12.1c0,6.3,0.2,7.5,1.1,8.8c1.1,1.6,3.3,2.3,6.3,2.8v1.2
		c-2.6-0.2-7.3-0.3-10.9-0.3"/>
	<path class="st0" d="M246.7,369.9c-1.9,0-6.8,0.1-10.5,0.3v-1.2c2.7-0.5,4.4-1.2,5.3-2.5c1.2-1.5,1.7-2.5,1.7-15.2v-9.7
		c0-4.9-0.4-8.1-6.8-9.2v-0.9c3.6-0.1,7.3-0.4,10.9-1c1.2-0.3,2.3-0.7,3.4-1.2l0.6,0.4c-0.6,6.2-0.7,17.8-0.7,22.7v7.6
		c0,2.5,0.1,5,1.2,6.4c1.1,1.4,2.9,2.2,6.2,2.7v1.2C255.5,370,250.3,370,246.7,369.9 M246.4,317.2c-2.4,0.2-4.5-1.6-4.7-4
		c0-0.2,0-0.4,0-0.6c0-2.9,2.1-4.6,4.9-4.6s4.7,1.7,4.7,4.5C251.3,315.5,249.3,317.2,246.4,317.2"/>
	<path class="st0" d="M294.2,337.3l-13.7,33h-5.1l-12.5-33c-1-2.6-1.8-5-4.6-5.7v-1.2c1.8,0.2,6.3,0.3,8.4,0.3
		c2.8,0.1,5.6,0,8.4-0.3v1.2c-3.4,0.9-4.1,2-4.1,3.5c0.1,1.6,0.5,3.1,1.1,4.5l5.2,14.8c1.2,3.5,2.1,6.2,2.8,9.2
		c0.2-0.5,1.7-5.2,2.4-7.2l5.8-17.1c0.5-1.5,0.9-3,1-4.5c0-2.1-1.9-2.5-4.1-3.2v-1.2c1.4,0.2,5.2,0.3,6.8,0.3c2.4,0,5.3-0.1,6.9-0.3
		v1.2C295.9,332.2,295.4,334.3,294.2,337.3"/>
	<path class="st0" d="M307.6,346.5c0,0-0.1,1.4-0.1,2.1c0,11,4.4,17.6,16,17.6c2.9,0,5.8-0.5,8.5-1.7l0.5,0.8
		c-2.8,3.4-7.8,5.4-14,5.4c-11.7,0-18.7-7.4-18.7-19.8c0-12.5,7.5-20.8,18.6-20.8c6,0,10.5,2.1,12.9,6c1.6,2.5,2.2,5.1,2.2,9.6v0.9
		L307.6,346.5z M325.2,342.2c0-6.6-2.3-9.5-7.5-9.5c-5.9,0-9.1,3.8-9.9,11.6l17.4-1.7V342.2z"/>
	<path class="st0" d="M364.4,338.8c-2,0-3.7-1-3.7-3.2c0-0.6,0.2-1.2,0.4-1.7c-3.1,0-6.2,0.9-8.8,2.6v21.1c0,6,0.7,6.7,1.1,7.6
		c0.8,1.3,2.5,2.9,8,3.8v1.2c-3.7-0.2-6.4-0.3-12.3-0.3c-3.7,0-7.5,0.1-11.2,0.3v-1.2c3.7-0.7,5.3-1.9,6.1-3.9s0.9-4.9,0.9-8.7
		v-14.8c0-4.9-0.4-8.1-6.8-9.2v-0.9c3-0.3,5.3-0.1,10-1c1.3-0.2,2.5-0.6,3.7-1.1l0.6,0.5l-0.4,5.6c2.9-3.1,6-5.4,10.5-5.4
		c3,0,5.9,1.3,5.9,4.7c0.2,2.1-1.3,3.9-3.4,4.1C364.9,338.8,364.6,338.8,364.4,338.8"/>
	<path class="st0" d="M384.5,370.6c-3.8,0-7.5-0.5-11.1-1.7v-3c0-2.1-0.1-4.2-0.4-6.2h1.2c2.2,4.2,4.1,8.2,9.5,8.2
		c7.5,0,8.7-4.2,8.7-6.7c0-4.5-3.5-6.1-5.9-7.4l-4.6-2.5c-3.2-1.7-7.9-4.4-7.9-10.7c-0.2-3.9,2-7.5,5.5-9.1c2-0.9,4.3-1.4,6.5-1.4
		h0.8c3.7,0,5.4,0.7,8,0.7c0.6,0,1.3-0.2,1.8-0.6l0.6,0.3c-0.1,0.7-0.2,3.1-0.2,4.2c0,3.5,0.2,4,0.2,4.9H396c-1.6-3.3-2.7-7-7.8-7
		c-1.9,0-8,0-8,6c0,3.3,2.9,5,4.7,5.9l5.7,2.8c3.5,1.8,8.4,4.2,8.4,11.2C399.1,367.3,391.8,370.6,384.5,370.6"/>
	<path class="st0" d="M414.8,369.9c-1.9,0-6.8,0.1-10.5,0.3v-1.2c2.7-0.5,4.3-1.2,5.3-2.5c1.2-1.5,1.7-2.5,1.7-15.2v-9.7
		c0-4.9-0.4-8.1-6.8-9.2v-0.9c3.6-0.1,7.3-0.4,10.9-1c1.2-0.3,2.3-0.7,3.4-1.2l0.6,0.4c-0.6,6.2-0.7,17.8-0.7,22.7v7.6
		c0,2.5,0.1,5,1.2,6.4c1.1,1.4,2.9,2.2,6.2,2.7v1.2C423.6,370,418.4,370,414.8,369.9 M414.5,317.2c-2.4,0.2-4.5-1.6-4.7-4
		c0-0.2,0-0.4,0-0.6c0-2.9,2.1-4.6,4.9-4.6c2.4-0.2,4.5,1.6,4.7,4c0,0.2,0,0.4,0,0.6C419.4,315.5,417.4,317.2,414.5,317.2"/>
	<path class="st0" d="M443.5,370.8c-6.1,0-9-2.5-10.2-6.4c-0.7-2.1-0.7-5.7-0.7-8.4c0-1.4,0.2-15.8,0.3-22.1h-5.5v-1.2
		c3.5-1,5.6-2.5,6.9-4.4c1.4-2.3,2-5.3,2.4-9h3.9c-0.3,4.2-0.3,7.8-0.4,11.7l13.1-0.5v3.7l-13.1-0.3v22.4c0,5.9,0.3,10.9,8.2,10.9
		c1.7,0,3.4-0.3,5-0.8l0.5,1.1C452.7,368.3,450.1,370.8,443.5,370.8"/>
	<path class="st0" d="M493.4,337.3l-12.3,34.2c-2.7,7.7-4.7,13.2-6.7,16.3c-2.6,4.2-6.2,6.7-12.5,6.7c-3.3,0-7.8-0.9-7.8-4.9
		c-0.1-2,1.5-3.8,3.5-3.9c0.2,0,0.3,0,0.5,0c2.2,0,4,1.2,4,3.6c0,1.1-0.5,2.1-1.3,2.7h0.9c7.5,0,9.8-5.5,11.9-11.4l2.5-7.2
		l-14.2-36.3c-0.8-2.2-1.3-4.7-4.6-5.6v-1.2c1.2,0.2,6.4,0.3,8.4,0.3c2.8,0,6.4-0.1,8.4-0.3v1.2c-1.7,0.6-4.2,1.1-4.2,3.4
		c0.1,1.1,0.3,2.2,0.8,3.2l6.1,17c0.5,1.2,2.2,6.1,2.9,9.3l7.4-24.6c0.6-1.6,1-3.3,1.2-5c0-2.4-2.5-2.8-4.3-3.3v-1.2
		c1.4,0.2,5.4,0.3,7,0.3c2.4,0,5.4-0.1,7-0.3v1.2C495.2,332.2,494.3,334.9,493.4,337.3"/>
	<path class="st0" d="M535.8,370.7c-13.5,0-14.3-10.9-14.3-15.9c0-14.5,8.3-24.8,19.5-24.8c13.5,0,14.3,10.9,14.3,15.9
		C555.4,360.4,547,370.7,535.8,370.7 M548.1,345.2c0-5.3-0.1-12.5-7.1-12.5c-9.2,0-12.2,14.8-12.2,22.4v0.4c0,5.3,0.1,12.5,7.1,12.5
		c9.2,0,12.2-14.8,12.2-22.4V345.2z"/>
	<path class="st0" d="M592.2,309c-3.5,0-3.6-2.5-3.6-3.1v-0.1c0-1.3,0.8-2.5,2-3.1c-0.8-0.1-1.6-0.2-2.4-0.2
		c-9.5,0-11,8.8-12.1,16.7c-1,7.6-1.7,12-1.7,12l10.7-0.5l-0.6,3.6l-10.5-0.3c0,0-2.2,14.3-3.6,23.8c-2.9,19.6-4,26.1-8.2,31.7
		c-2.5,3.1-6.3,5-10.3,4.9c-7.6,0-7.6-4.2-7.6-4.7c-0.2-2,1.3-3.7,3.3-3.9c0.2,0,0.4,0,0.6,0c2.2,0,3.5,1.3,3.5,3
		c0,1.3-0.7,2.4-1.8,3c0.5,0.1,1,0.2,1.5,0.2c2.6,0,5.1-1.3,6.6-3.5c2.5-3.8,3.1-10.6,4.1-17.4c2.1-15.4,5.1-37.1,5.1-37.1h-6.9
		l0.3-1.3c1.9-0.1,4.3-0.5,5.9-1.9c1.2-1.1,1.6-3.9,2-6.4c0.4-4.1,1.2-8.1,2.3-12c1.9-5.9,6.3-12.5,16.9-12.5c6.3,0,8.7,2.6,8.7,5
		C596.2,308.6,593.7,309,592.2,309"/>
	<path class="st0" d="M209.6,411.5c-1.6,1.7-1.9,3.6-1.9,12.6v46.8h-3.6l-37.1-48.4c-0.9-1.1-1.6-2.2-2.3-3.5v40.4
		c0,3.5,0.1,5.9,1.2,7.4c0.9,1.1,2.8,2.1,6.2,2.7v1.2c-3.9-0.3-6.6-0.4-10-0.4s-5,0-9.9,0.4v-1.2c1.2-0.3,4.5-1,5.8-2.3
		c1.6-1.7,1.9-3.7,1.9-12.7v-33.5c0-4.4,0-7.4-1.3-9c-0.9-1.2-2.7-2.2-6.1-2.7V408c3.4,0.3,5.1,0.4,8.5,0.4c1.7,0,3.4-0.1,5.1-0.3
		l33.7,43.9c1.1,1.4,2.2,3,3.1,4.5v-37.3c0-3.5-0.1-5.9-1.2-7.4c-1-1.1-2.8-2.1-6.2-2.6V408c3.9,0.3,6.4,0.4,9.8,0.4
		c3.4,0,6.7-0.1,10.1-0.4v1.2C214.1,409.5,210.8,410.2,209.6,411.5"/>
	<path class="st0" d="M225.7,446.8c0,0-0.1,1.4-0.1,2.1c0,11,4.3,17.6,16,17.6c2.9,0,5.8-0.5,8.5-1.7l0.5,0.8
		c-2.8,3.4-7.8,5.4-14,5.4c-11.7,0-18.7-7.4-18.7-19.8c0-12.5,7.5-20.8,18.6-20.8c6,0,10.5,2.1,12.9,6c1.6,2.5,2.2,5.1,2.2,9.6v0.9
		L225.7,446.8z M243.3,442.6c0-6.6-2.3-9.4-7.5-9.4c-5.9,0-9.1,3.8-9.9,11.6l17.4-1.7V442.6z"/>
	<path class="st0" d="M312.4,438.5l-12.1,32.2H295l-8.1-28.1c-0.1-0.4-0.8-2.7-1-4.3c-0.3,1.5-0.7,2.9-1.3,4.3l-9.4,28.1H270
		l-10.9-33.1c-0.8-2.2-1.4-5-4.5-5.7v-1.2c1.8,0.2,6.2,0.3,8.2,0.3c2.8,0.1,5.5,0,8.3-0.3v1.2c-1.2,0.3-4.4,1-4.4,3.4
		c0,1.1,0.3,2.3,0.7,3.3l4.4,14.8c0.8,2.6,2.2,7.8,2.4,9.2c0.3-1.5,0.7-3,1.2-4.5l9.1-27.2c1,0.2,2.1,0.3,3.1,0.3
		c1.1,0,2.2,0,3.3-0.3l7.8,26.3c0.5,1.5,0.9,3.1,1.1,4.6c1.1-3.1,7.2-23.4,7.2-23.4c0.4-1,0.6-2.1,0.7-3.2c0-2.1-1.5-2.5-4.2-3.3
		v-1.2c1.4,0.2,5.3,0.3,6.9,0.3c2.4,0,5.2-0.1,6.8-0.3v1.2C313.9,432.7,313.4,435.7,312.4,438.5"/>
	<path class="st0" d="M396.9,411.5c-1.6,1.7-1.9,3.6-1.9,12.6v33.6c0,4.4,0,7.4,1.3,9c1,1.2,2.7,2.2,6.1,2.7v1.2
		c-3.9-0.3-8.1-0.4-11.5-0.4s-7.6,0-11.8,0.4v-1.2c1.3-0.3,4.5-1,5.8-2.3c1.6-1.8,1.9-3.8,1.9-12.7v-14.1h-31.9v19.1
		c0,3.5,0.1,5.9,1.2,7.4c0.9,1.1,2.8,2.1,6.2,2.7v1.2c-3.9-0.3-8.1-0.4-11.5-0.4c-3.4,0-7.6,0-11.8,0.4v-1.2c1.2-0.3,4.5-1,5.8-2.3
		c1.6-1.7,1.9-3.7,1.9-12.7v-33.5c0-4.4,0-7.4-1.3-9c-0.9-1.2-2.7-2.2-6.1-2.7V408c3.9,0.3,8.1,0.4,11.5,0.4c3.4,0,7.7,0,11.8-0.4
		v1.2c-1.3,0.3-4.5,1-5.8,2.3c-1.6,1.8-1.9,3.8-1.9,12.7v12h31.9v-16.9c0-3.5-0.1-5.9-1.2-7.4c-0.9-1.1-2.8-2.1-6.2-2.6V408
		c3.9,0.3,8.1,0.4,11.5,0.4s7.7,0,11.8-0.4v1.2C401.4,409.5,398.1,410.2,396.9,411.5"/>
	<path class="st0" d="M434.7,471.2c-3,0-4.9-1.7-5-4.4c-2.7,2.9-6.5,4.5-10.5,4.4c-7.4,0-12-4-12-10.1c0-5.8,3.7-8.6,7.6-9.7
		c4.7-1.4,12.1-1.4,14.6-1.4v-6.1c0-2-0.1-3.6-0.2-4.9c-0.3-2.5-1.9-5.8-7.3-5.8c-1.6-0.1-3.1,0.1-4.6,0.5c1.5,1.4,1.5,3.8,0.1,5.3
		c-0.6,0.7-1.5,1.1-2.4,1.1c-2.3,0-3.7-1.1-3.7-3.4c0-3.4,4.8-6.2,12.6-6.2c10,0,11.8,4.5,12.6,7.5c0.4,2.1,0.5,4.2,0.5,6.3v2.6
		c0,2.3-0.2,13.5-0.2,14c0,2.5,0.2,4,1.2,4.8c0.8,0.7,2,0.9,3.9,0.9h1.1l0.3,0.8C440.1,470,437.4,471.2,434.7,471.2 M429.4,451.9
		c-2.9,0.2-8.4,0.7-11,2c-2.3,1.3-3.6,3.7-3.4,6.3c0,4.3,2.8,7,7.6,7c2.3,0,4.6-0.5,6.7-1.3L429.4,451.9z"/>
	<path class="st0" d="M478.8,437.6l-13.7,33.1H460l-12.5-33.1c-1-2.6-1.8-5-4.6-5.7v-1.2c1.8,0.2,6.3,0.3,8.4,0.3
		c2.8,0.1,5.6,0,8.4-0.3v1.2c-3.4,1-4.1,2-4.1,3.5c0.1,1.6,0.5,3.1,1.1,4.5l5.2,14.8c1.2,3.5,2.1,6.2,2.8,9.2
		c0.2-0.5,1.7-5.2,2.4-7.2l5.8-17.1c0.5-1.5,0.9-3,1-4.5c0-2.1-1.9-2.5-4.2-3.2v-1.2c1.4,0.2,5.2,0.3,6.8,0.3c2.4,0,5.3-0.1,6.9-0.3
		v1.2C480.5,432.6,480,434.7,478.8,437.6"/>
	<path class="st0" d="M492.2,446.8c0,0-0.1,1.4-0.1,2.1c0,11,4.4,17.6,16,17.6c2.9,0,5.8-0.5,8.5-1.7l0.5,0.8
		c-2.8,3.4-7.8,5.4-14,5.4c-11.7,0-18.7-7.4-18.7-19.8c0-12.5,7.5-20.8,18.6-20.8c6,0,10.5,2.1,12.9,6c1.6,2.5,2.2,5.1,2.2,9.6v0.9
		L492.2,446.8z M509.8,442.6c0-6.6-2.3-9.4-7.5-9.4c-5.9,0-9.1,3.8-9.9,11.6l17.4-1.7V442.6z"/>
	<path class="st0" d="M559.2,470.2c-1.9,0-6,0.1-10,0.3v-1.2c1.5-0.1,2.8-0.7,4-1.6c1.7-1.7,1.9-4.7,2-9.3c0.1-2.1,0.1-5.5,0.1-9
		c0.1-2.3-0.1-4.5-0.4-6.8c-0.8-5.8-4.5-8.2-9.9-8.2c-3.2,0-5.7,0.4-8,1.8v21.4c0,7.8,0.5,8,0.9,9c0.8,1.6,3.6,2.4,5.1,2.7v1.2
		c-3.3-0.2-6.9-0.3-10.5-0.3c-1.9,0-6.2,0.1-9.9,0.3v-1.2c2.6-0.5,4.2-1.2,5.3-2.5c1.5-1.7,1.7-4.6,1.7-14.5v-10.4
		c0-4.9-0.4-8.1-6.8-9.2v-0.9c3.3-0.1,6.5-0.4,9.7-0.8c1.4-0.2,2.7-0.6,4-1.2l0.6,0.4l-0.3,5.2c3.4-3.4,8-5.3,12.8-5.2
		c6.4,0,10.9,2.7,12.5,8.5c0.4,2.3,0.7,4.7,0.7,7v12.1c0,6.3,0.2,7.5,1.1,8.8c1.1,1.6,3.3,2.3,6.3,2.8v1.2
		c-2.5-0.2-7.3-0.3-10.9-0.3"/>
	<path class="st0" d="M386,150.3c0.4,0,0.7,0,1.1-0.1h0.1c-0.3,0.3-0.6,0.6-1,0.8c-0.5,0.4-1.2,0.6-1.8,0.6c-2.1,0-3.6-2.7-3.6-2.7
		c-0.3-0.5-0.5-1.1-0.3-1.7v-0.1c0-0.1,0-0.2,0-0.3c0.1,0.1,0.1,0.2,0.2,0.3l0.1,0.1c0.9,1.3,2.1,2.2,3.5,2.9
		C384.8,150.2,385.3,150.3,386,150.3 M387.6,140.9c-1,1.1-2.1,2.1-3.5,2.7h-0.1c-0.3,0.3-0.8,0.5-1.2,0.7c0-0.6,0.1-1.1,0.3-1.7
		c1.1-3.2,2.4-3.4,2.4-3.4h0.1c0.4-0.1,0.8-0.2,1.1-0.2c0.6,0,0.7,0.2,0.8,0.3C387.8,139.8,387.8,140.3,387.6,140.9 M376.9,139.1
		c0.1-0.2,0.3-0.4,0.6-0.5h0.1c0.8-0.6,1.4-1.2,2-2c0.6-0.7,1.2-1.4,1.7-2.2c1.8,0,14.8-0.3,15-0.3c0.6-0.1,1.3,0.1,1.7,0.6
		c0.3,0.4,0.3,0.9,0.2,1.4v0.1c-0.2,3-1.9,5.6-4.6,6.9c-1.1,0.5-2.4,0.8-3.6,0.9c-0.3,0.1-0.5,0.1-0.8,0l0,0c1-0.4,1.9-2.8,2.2-4
		c0.2-0.9,0-1.8-0.5-2.6c-1-1.1-2.3-1.7-3.8-1.9H387c-2.5,0.3-4.8,1.8-6.2,3.9c-0.7,1.6-1.6,3.2-2.8,4.5v0.1
		c-0.2,0.3-0.3,0.6-0.6,0.9c0.2-1.6,0.1-3.2-0.4-4.7C376.9,139.9,376.9,139.5,376.9,139.1 M370.3,145.8h0.7c0.5,0.7,0.6,1.5,0.5,2.4
		c-0.6,2.7-4.4,5-4.4,5c-1.6,0.8-3.3,1.3-5.1,1.5c-1.2,0.1-1.8,0.3-1.9,0.8s0.6,0.9,0.8,1h0.1h0.1c0,0,0.2,0,1.1,0
		c1.2,0,2.8,0,2.8,0c0.3,0,0.4,0.1,0.4,0.2s-0.4,0.7-0.8,1l-0.1,0.1c-0.3,0.6,0,1.3,0.5,1.6c0.3,0.2,0.4,0.4,0.4,0.5
		s-0.3,0.5-0.5,0.7c-0.9,0.1-1.7,0.1-2.4,0.2c-1.4,0.1-2.6,0.2-4,0.2c-0.9,0-1.9,0-3-0.1c-0.4,0-0.6-0.1-0.7-0.2
		c0-0.1,0.1-0.5,0.4-0.8c1.6-0.1,4.2-0.2,5.6-0.2h1.3h0.1l0.1-0.2c0.3-0.3,0.4-0.8,0.3-1.2c-0.2-0.4-0.6-0.6-1-0.6h-0.2h-0.3
		c-1,0-4.3-0.1-4.3-0.1c-0.4,0-0.8,0-1.2-0.1c0.1-0.1,0.3-0.2,0.5-0.3c1.2-0.2,1.9-0.5,2-1.1c0.2-0.7-0.8-1.4-0.9-1.4h-0.1
		c-5.9-1.7-5.8-6-5.7-7c0.9,0,3-0.2,3-0.2c0.4,0.1,0.9-0.1,1.2-0.4c0.2-0.4,0.3-0.8,0.2-1.2c5-0.3,10.1-0.7,11-0.8l0.6,0.8l0.1,0.1
		h0.2C368.9,145.8,369.8,145.8,370.3,145.8 M356.1,124.2c0.8-0.9,1.9-1.3,3-1.3c0.3,0,0.6,0,0.9,0.1c2.3,0.4,2.9,2.2,3.6,4.3
		c0,2.1-0.9,3.3-2.8,3.7c-0.7,0.2-1.3,0.2-2,0.2c-1.8,0.2-3.4-1.1-3.6-2.9C354.8,126.9,355.2,125.4,356.1,124.2 M353.8,141.4
		c0.6-1.9,1.4-3.7,2.2-5.5c0.7-1.3,2.1-2.1,3.6-2.2c0.7,0,1.5,0.2,2.1,0.5h0.1c2.5,1.1,4.7,2.8,6.4,5l0.1,0.1c1,1,1,1.5,1,1.5
		s-0.3,0.2-0.3,0.3h-0.1c-2.6,1-9.7,1-9.8,1.1c-1.6,0.1-2.8,0.1-3.8,0.1h-1.7l0,0c0-0.3,0.1-0.7,0.2-1 M327.4,136.5
		c-0.1,0-0.2,0-0.2-0.1L327.4,136.5z M317.6,126.8c0.2-0.3,0.8-0.5,1.2-0.5h0.1c0.6-0.3,1.2-0.6,1.8-0.9l0.1-0.1
		c0.2-0.2,0.5-0.3,0.8-0.4c0.5,0.1,0.9,0.3,1.1,0.7c0.8,0.6,1.9,0.9,2.9,0.7c0.3,0.1,1,0.3,1.1,0.7c0.1,0.4-0.2,0.8-0.4,1.1
		l-0.1,0.1v0.1c-0.3,1.1-0.5,2.2-0.6,3.3c-0.1,1.1-0.1,2.2-0.2,2.7v0.3v0.3c0.2,0.3,0.2,0.6,0.1,0.9c-0.1,0.2-0.8,0.2-1.6-0.1h-0.1
		h-0.1c-1,0-1.9,0.1-2.8,0.4c-0.3,0.1-0.6,0.2-0.9,0.2c-0.5,0-0.8-0.3-1-0.9c-0.1-1.8-0.1-2.9-0.2-3.9c-0.1-0.4-0.3-1.4-0.8-3.4
		l-0.1-0.1C317.9,127.9,317.5,127.3,317.6,126.8 M348.9,152.3c-0.1,0.1-0.3,0.2-0.9,0.2c-0.4,0-0.7,0-1.1-0.1
		c-2.2-0.3-4.3-1.2-5.9-2.7l-0.6-0.4c-3-2.1-6.1-3.9-9.3-5.6c-2-1.3-8.9-2.4-9.3-2.4c-1.3,0-2.5,0.2-3.6,0.8
		c-1.6,0.8-1.8,0.5-1.8,0.5c-0.1-0.2,0-0.9,0.2-1.4c2.4-2.4,6.7-2.8,9.1-2.8c0.7,0,1.3,0,2,0.1c6.4,0.8,15.5,4.8,15.6,4.9
		c2.3,0.9,4.2,2.6,5.3,4.8c0.3,0.9,0.2,1.1,0.2,1.1c-0.3,0-0.5-0.1-0.8-0.1c-1.1-0.5-2-1.2-2.7-2.2l-0.1-0.1h-0.1
		c-0.4-0.2-0.8-0.4-1.3-0.4c-0.3,0-0.6,0.1-0.8,0.3c-0.2,0.3-0.3,0.6-0.2,0.9v0.1c0.7,1.4,3.7,3,4.2,3.3c0.5,0.5,1.1,0.8,1.7,0.9
		C348.9,152.2,348.9,152.3,348.9,152.3 M344.1,141.2c-0.7,0.2-1.4,0.4-2.1,0.4c-0.6,0.1-1.1-0.2-1.4-0.8c-0.2-0.6-0.1-1.3,0.4-1.8
		l0.1-0.1l0.1-0.1c1.5-1.1,2.8-2,4.1-3s2.6-1.9,4.1-2.9l0.2-0.1h0.2c0.3-0.1,0.6-0.1,0.9-0.1c0.9-0.1,1.6,0.6,1.7,1.4
		c0,0,0,0.1,0,0.1v0.3l-0.2,0.3C350.3,137.8,347.5,140.1,344.1,141.2 M346.1,162.6c3,0,27.2-0.3,27.4-0.3c1.1,0.1,1.4,0.4,1.5,0.6
		s-0.4,0.7-0.5,0.8l-0.1,0.1h0c-2.1,0.2-4.3,0.3-6.4,0.3l-14.7,0.1h-7.7c-0.2-0.1-0.3-0.3-0.3-0.5
		C345.3,163.2,345.9,162.7,346.1,162.6 M341.7,227.6c2.4,3.6,4.5,6.9,6.4,9.7c9.4,14.2,9.5,14.2,10.5,14.2h0.8l0.4-0.6l15.3-23
		l-3.5-0.1c-4.8,7.2-9.3,14-13.2,19.9c-2.1-3-7-10.4-13.4-20L341.7,227.6z M322,192c-6-9.4-12.1-18.7-17.5-27.1
		c27.5,0.3,94.3,0.3,108.6,0.3c-2.6,4-8.7,13.1-16.1,24.3l0,5.2c11.1-16.7,19.9-30,20-30.3l1-2.1h-2.4c-0.4,0-17,0-37.8,0
		c0.1-1,0-2.1-0.5-2.5c-0.3-0.5-1-0.7-1.6-0.5h-2c-1,0-2.5,0-4.5-0.1c-0.2-1.5-0.1-3.1,0.5-4.6c0,0,2.5,0.4,7-4c0,0,0.2-1,1.7-1.5
		c0.7,2.2,2.6,3.9,4.9,4.2c0,0,8.1,1.2,6.8-5c0,0-4.5,1.2-4.9-0.5c0,0-0.2-1.3,2.5-2.7c2.1-0.2,4.1-0.5,6.2-1c0,0,6.7-1.3,6.7-10.4
		c0,0-0.2-2.9-1.8-2.3c0,0-12.6,0.4-15.9,0.2c-1.6-0.2-3.1,0.6-3.8,2.1c0,0-0.6,2.8-3.8,1.5c0,0-1.2-0.2-5.2-2.4
		c0,0-3.8-2.1-5.8-2.9c0,0,2.8-8.6-5.5-8.9c0,0-6.6,0.4-5.1,8.6c0,0-6.4,2.3-9.2,5c0,0-6.4,5.1-10.1,3.3l-7.4-1.6
		c-0.2-0.1-0.6-0.5-0.6-1.5c-0.1-1.8,0.1-3.6,0.7-5.3c0.3-1.2,0.7-2.3,1.4-3.4c0.1-0.4,0.1-0.9,0-1.3c0,0,0.1-0.2-1.2-0.1
		c-1.9,0.7-4,0.2-5.3-1.3c0,0-0.5-1-1.2,0c0,0-2,2.8-4,2.2c0,0-0.3-0.1-0.9-0.4c0,0-1.5-0.1-1.1,0.7c0.3,1.1,0.7,2.1,1.2,3.2
		c0,0,1,1.1,1,6.9c0,0,0.4,1.9-0.1,2.7c0,0-3.4,2.5-3,4.8c0,0,0.9,1.3,2.9,0c2.7-1,5.6-1.2,8.4-0.6c3.2,1.2,6.2,2.7,9,4.6
		c0,0,4,2.3,6.5,4.1c2.8,1.8,5.9,3.2,9.2,4.1c0.4,0.3,0.6,0.9,0.5,1.4c0,0,1.2,3.3-1.4,2.7c0,0-6.2-0.5-6.7,1.1
		c-0.1,0.4-0.1,0.8-0.1,1.2c-16.2-0.1-31.3-0.1-40.5-0.2h-2.7l1.5,2.3c0.1,0.2,10.2,15.9,21.7,33.7L322,192z"/>
	<path class="st0" d="M358.6,285.7c-60.1,0-108.8-48.7-108.8-108.8c0-60.1,48.7-108.8,108.8-108.8c60.1,0,108.8,48.7,108.8,108.8
		c0,0,0,0,0,0C467.3,236.9,418.7,285.6,358.6,285.7z M358.6,70.4c-58.8,0-106.5,47.7-106.5,106.5s47.7,106.5,106.5,106.5
		s106.5-47.7,106.5-106.5C465,118.1,417.4,70.4,358.6,70.4L358.6,70.4z"/>
	<path class="st0" d="M275.3,215.8c1.7-0.9,3.4-1.9,5.3-1.3c1.8,0.7,3.3,2.1,4.1,3.8c0.9,1.6,1.6,3.6,1.2,5.4
		c-0.5,2.2-2.2,3.2-4.1,4.3l-9.2,5l-2.1-3.9l9.3-5c0.8-0.4,1.6-0.9,2.2-1.6c0.4-0.9,0.4-2-0.2-2.9c-0.4-0.8-1.1-1.5-2-1.8
		c-1,0.1-2,0.4-2.8,1l-9.3,5l-1.7-3.1L275.3,215.8z"/>
	<polygon class="st0" points="276,195.6 277,198.9 267.6,208.6 267.6,208.7 278.8,205.4 279.7,208.5 263,213.3 261.8,209.1 
		270,200.6 270,200.6 260.1,203.4 259.3,200.4 	"/>
	
		<rect x="257.7" y="186.9" transform="matrix(0.994 -0.1094 0.1094 0.994 -19.0701 30.278)" class="st0" width="17.4" height="4.1"/>
	<polygon class="st0" points="274.8,171.9 274.5,176.3 256.9,180.6 257.1,176.3 269.7,173.4 257.5,169.2 257.7,165.8 	"/>
	<polygon class="st0" points="263.1,156 266.6,156.8 268.2,150.4 271.4,151.2 269.7,157.6 273.5,158.6 275.5,150.5 278.8,151.3 
		275.7,163.4 258.9,159.1 262,147 265.2,147.9 	"/>
	<path class="st0" d="M281.9,144.1l-1.8,3.6l-15.6-7.7l3.2-6.6c0.6-1.4,1.5-2.7,2.8-3.6c1.5-0.8,3.3-0.9,4.9-0.1
		c1.8,0.8,2.9,2.7,2.7,4.7l8.3,0.5l-2,4l-7.4-0.6l-1.3,2.7L281.9,144.1z M273.1,139.7l1-2c0.5-0.7,0.7-1.5,0.8-2.4
		c-0.1-0.8-0.6-1.4-1.3-1.8c-0.6-0.3-1.4-0.2-2,0.1c-0.7,0.6-1.2,1.4-1.4,2.2l-0.9,1.9L273.1,139.7z"/>
	<path class="st0" d="M284.2,117.2c-1.3-0.5-2.7-0.1-3.5,1.1c-0.7,0.9-1.3,2.1-0.2,2.9s2.2-0.2,2.9-0.9c1.2-1.1,2.5-2,4-2.7
		c1.6-0.6,3.3-0.3,4.6,0.7c1.3,1.1,2.1,2.7,2.1,4.4c-0.1,1.8-0.8,3.5-2,4.8c-2,2.6-5,4-8.1,2.6l1.6-3.5c1.8,0.7,3.1,0.1,4.2-1.3
		c0.7-0.9,1.3-2.4,0.2-3.3c-1.1-0.9-2.6,0.5-3.4,1.2c-2.4,2-5,3.9-8,1.5c-1.3-0.9-2-2.4-2.1-4c0-1.6,0.5-3.1,1.6-4.3
		c1.9-2.4,4.2-3.7,7.3-2.7L284.2,117.2z"/>
	
		<rect x="293.6" y="101.9" transform="matrix(0.7355 -0.6775 0.6775 0.7355 3.2721 229.5631)" class="st0" width="4.1" height="17.4"/>
	<polygon class="st0" points="309.5,93.7 305.9,96.1 313.6,107.7 310.2,109.9 302.5,98.3 298.8,100.8 296.9,97.9 307.6,90.8 	"/>
	<polygon class="st0" points="325.2,93.6 328.1,100.4 324.3,101.9 321.5,95.2 312.5,88 316.9,86.2 322.5,91 323,83.6 326.4,82.2 	
		"/>
	<path class="st0" d="M347.6,92.7c-1.3-1.8-2.1-3.9-2.2-6.1c-0.3-4.6,1.8-9.1,6.9-9.4c2.2-0.2,4.3,0.6,5.6,2.3
		c1.3,1.8,2.1,3.9,2.2,6.2c0.1,2.1-0.3,4.2-1.3,6.1c-1.2,2-3.3,3.2-5.6,3.3C351.1,95.4,348.9,94.5,347.6,92.7 M350,82.7
		c-0.3,1.2-0.4,2.4-0.3,3.7c0.1,2.2,0.7,5.6,3.5,5.5c1.2,0,2.3-0.9,2.5-2.2c0.3-1.2,0.4-2.4,0.3-3.7c0-1.3-0.3-2.7-0.9-3.9
		c-0.4-1-1.5-1.7-2.6-1.5C351.2,80.6,350.2,81.5,350,82.7"/>
	<polygon class="st0" points="370.9,81.5 370.4,85.4 376.9,86.3 376.5,89.6 369.9,88.6 369,95.4 364.9,94.8 367.3,77.6 379.6,79.3 
		379.1,82.6 	"/>
	<polygon class="st0" points="402.1,106.7 399,105.1 398.4,91.7 398.3,91.6 393,102.1 390.2,100.6 398,85.1 402,87.1 402.5,98.8 
		402.6,98.9 407.2,89.7 410,91.2 	"/>
	<polygon class="st0" points="418.1,100.9 415.9,103.7 421,107.8 419,110.4 413.9,106.3 411.5,109.3 418,114.5 415.9,117.1 
		406.2,109.4 417,95.8 426.7,103.5 424.6,106.2 	"/>
	<polygon class="st0" points="428.7,132.2 426.2,129 433.5,119.7 433.5,119.7 422.7,124.6 420.3,121.5 431.2,107.2 433.7,110.5 
		426.2,119.8 426.2,119.9 437.2,114.8 439.5,117.8 432.1,127.3 432.1,127.4 432.8,127 443,122.2 445,124.9 	"/>
	<polygon class="st0" points="440.7,160.7 439.5,156.8 446.4,154.7 444.8,149.6 438,151.6 436.8,147.8 453.4,142.7 454.6,146.6 
		448.1,148.6 449.7,153.7 456.2,151.8 457.3,155.6 	"/>
	<path class="st0" d="M442.7,179.5l-0.4-4.4l3.5-1.3l-0.5-5.6l-3.7-0.8l-0.3-3.6l17.8,4.2l0.4,4.7L442.7,179.5z M448.9,172.6
		l5.9-2.3l-6.2-1.4L448.9,172.6z"/>
	<polygon class="st0" points="441.7,189.5 442.1,185.1 460,181.7 459.5,186 446.8,188.2 458.8,193.1 458.4,196.5 	"/>
	<polygon class="st0" points="452.5,206 449.1,205 447.2,211.3 444,210.3 446,204 442.3,202.9 439.8,210.9 436.6,209.9 440.3,198 
		456.9,203.1 453.2,215 450,214 	"/>
	<polygon class="st0" points="428.7,225 430.3,222 443.8,221.8 443.9,221.7 433.6,216.1 435.1,213.3 450.4,221.8 448.2,225.6 
		436.5,225.7 436.5,225.8 445.4,230.7 443.9,233.5 	"/>
	<path class="st0" d="M358.7,233.4h-0.2l-0.6-0.1l-0.2-0.4c-1.4-1.2-2.6-2.5-3.9-3.9c-3.9,0-29.7,0.2-32,0.2h-1.1v-52.8
		c-2-1.4-3.9-2.9-5.6-4.7l-0.4-0.3v-1l0.4-0.4c0.4-0.3,0.8-0.8,6.8-0.5c0.6,0,70.3-0.5,81.5,0l3,0.1l-2.3,1.9
		c-2.1,1.7-4.6,3.8-5.3,4.5V229h-1.1c-0.2,0-24,0.5-34.5,0.5C360.1,233,359.2,233.4,358.7,233.4z M354.8,226.8l0.3,0.4
		c1.8,2,3,3.1,3.6,3.7c0.7-0.6,2-2,3-3.1l0.3-0.4h0.5c8.9,0,28.9-0.4,33.9-0.5v-51.1c0-0.5,0-0.8,3.8-3.9
		c-17.2-0.4-77.7,0.1-78.4,0.1c-1.5-0.1-2.6-0.1-3.5-0.1c2.8,2.5,3.7,2.9,3.8,2.9l0.9,0.2l-0.1,0.9V227c6.1,0,31.3-0.2,31.3-0.2
		L354.8,226.8z"/>
	<path class="st0" d="M301.4,260.4c-0.9,0-1.9-0.3-2.6-0.9c-3-2-2.4-5.7-0.6-8.4c1.1-1.9,3-3.1,5.2-3.2c1,0,2,0.3,2.9,0.9
		c2,1.4,2.5,3.6,1.5,6l-0.1,0.4l-2-0.9l0.1-0.3c0.6-1.8,0.4-2.9-0.7-3.6c-0.4-0.3-0.9-0.5-1.4-0.5c-1.7,0-3.2,1.9-3.6,2.6
		c-0.6,0.8-1,1.7-1.2,2.6c-0.2,1,0.2,2.1,1,2.7c1.1,0.8,2.4,0.6,3.8-0.7l0.3-0.2l1.4,1.5l-0.3,0.2
		C304.1,259.7,302.8,260.3,301.4,260.4"/>
	<path class="st0" d="M312.9,267.1c-0.7,0-1.5-0.2-2.1-0.5c-1.5-0.7-2.5-2.1-2.7-3.7c-0.2-1.5,0.1-3.1,0.9-4.5c1-2,2.9-4.1,5.5-4.1
		c0.8,0,1.5,0.2,2.2,0.6c3.2,1.6,3.2,5.3,1.9,8.1C317.5,264.8,315.4,267.1,312.9,267.1 M314.6,256.3c-1.9,0-3.3,2.4-3.6,3.1
		c-0.5,0.9-0.7,2-0.7,3c0,1,0.5,1.9,1.4,2.4c0.3,0.2,0.7,0.3,1.1,0.3c1.5,0,2.9-1.7,3.6-3.1c0.5-0.9,0.8-2,0.8-3.1
		C317.2,257.5,316,256.4,314.6,256.3"/>
	<polygon class="st0" points="328.6,273.5 326.7,272.8 324.5,262.1 321.4,271 319.5,270.4 323.6,258.4 326,259.2 328,269.1 
		330.8,260.8 332.7,261.4 	"/>
	<polygon class="st0" points="342.7,276.5 340.7,276.1 337,265.8 335.2,275.1 333.3,274.7 335.7,262.2 338.1,262.7 341.5,272.3 
		343.1,263.6 345.1,264 	"/>
	<polygon class="st0" points="356,277.5 347.5,277 348.2,264.4 356.5,264.9 356.4,266.9 350.4,266.5 350.2,269.6 355,269.9 
		354.9,271.8 350,271.5 349.8,275.2 356.1,275.5 	"/>
	<path class="st0" d="M364,277.4c-3.4,0-5.1-3.2-5.3-6.3c-0.2-3,1-6.5,5-6.7c2.4-0.1,4.2,1.2,4.9,3.8l0.1,0.4l-2.1,0.5l-0.1-0.3
		c-0.6-1.8-1.5-2.5-2.8-2.4c-2.7,0.2-2.7,3.7-2.6,4.7c0,1,0.3,1.9,0.7,2.8c0.4,1,1.4,1.6,2.4,1.6c1.4-0.1,2.2-1,2.5-2.8l0.1-0.4
		l2.1,0.3l-0.1,0.4c-0.5,2.8-2.1,4.3-4.5,4.5L364,277.4"/>
	<polygon class="st0" points="375.4,276 373.4,265.5 370.1,266.1 369.7,264.1 378.6,262.4 379,264.4 375.6,265 377.5,275.5 	"/>
	
		<rect x="382.1" y="261.3" transform="matrix(0.9651 -0.262 0.262 0.9651 -56.7484 109.7745)" class="st0" width="2.2" height="12.7"/>
	<path class="st0" d="M392.8,271.2c-2.8,0-4.7-2.5-5.5-4.7c-0.6-1.4-0.7-3-0.4-4.6c0.4-1.6,1.6-2.8,3.1-3.3c2.2-0.8,4.4,0,5.8,2.2
		l0.2,0.3l-1.8,1.1l-0.2-0.3c-1.1-1.5-2.1-1.9-3.3-1.5c-2.6,1-1.4,4.6-1.1,5.3c0.3,0.9,0.8,1.8,1.5,2.5c0.5,0.6,1.2,0.9,2,0.9
		c0.3,0,0.5,0,0.8-0.1c1.3-0.5,1.8-1.6,1.6-3.5v-0.4l2.1-0.3l0,0.4c0.3,2.8-0.7,4.8-3,5.6C394.1,271.1,393.5,271.2,392.8,271.2"/>
	<path class="st0" d="M404.5,265.9c-0.4,0-0.8-0.1-1.2-0.2c-1.2-0.5-2.2-1.5-2.6-2.7l-3.8-7l2-1.1l3.8,7c0.3,0.7,0.7,1.3,1.3,1.7
		c0.7,0.2,1.5,0.1,2.1-0.3c0.6-0.3,1.1-0.8,1.3-1.5c0.1-0.8-0.1-1.5-0.6-2.1l-3.8-7l1.8-0.9l3.8,7c0.7,1,1,2.3,0.8,3.5
		c-0.3,1.3-1.2,2.4-2.4,2.9C406.3,265.7,405.4,265.9,404.5,265.9"/>
	<polygon class="st0" points="416.7,259.1 410.5,250.4 407.7,252.4 406.6,250.7 414,245.5 415.1,247.1 412.3,249.1 418.5,257.8 	"/>
	<path class="st0" d="M328.9,196.8c-0.4-4.1-0.5-8.3-0.2-12.4c0,0,0-0.9,0-1.4s0.1-1.2-0.1-1.5c-0.1-0.2-0.3-0.2-0.6-0.2
		c-0.8,0-2.6,1.4-3.1,2.2l0,0c0,0.8-0.1,1.5-0.3,2.3c-0.2,0.8-0.2,1.5-0.3,2.3c0,0.4,0,0.8-0.1,1.3c-0.3,1.3-0.2,2.7,0.4,4l0,0l0,0
		c0.4,0.2,1,0.1,1.3-0.2c0.5-0.5,0.3-1.6,0.2-2.5c-0.1-0.6-0.1-1.1,0-1.3s0.1-0.2,0.3-0.1l0.1,0.1c0.1,0,0.2,0.1,0.2,0.2
		c0.2,0.2,0.1,0.9-0.1,1.6c-0.2,1.2-0.5,2.8,0.7,3.2c0.1,0.7,0.1,1.6,0.1,2.6c0,1.3,0.1,2.6,0.4,3.8c0.1,0.6,0.1,1.1,0,1.7
		c-0.2,1.7-0.1,3.5,0.3,5.1c0.1,0.1,0.1,0.1,0.2,0.1c0.1,0,0.2-0.1,0.2-0.1C329.4,205.3,329.2,201.3,328.9,196.8"/>
	<path class="st0" d="M388.1,178L388.1,178c-3.4-0.5-58.8-0.1-59.4-0.1h-0.1l-2.5-3.2l0.5-0.4l0.1,0.2v-0.1
		c2.2-0.2,64.1-0.3,66.7-0.3h0.7l-0.4,0.5C393.2,175.1,388.7,178,388.1,178"/>
	<path class="st0" d="M359.6,222.5l-0.8-0.2c-6.2-1.1-11.2-1.6-12-1.7c-14.3,2.4-16.4-0.6-16.7-1.1l0,0c-0.2-0.9-0.3-5.5-0.1-37.7
		V181l0.9,0.2c5.1,0.9,14.9-0.7,15-0.7c5.6-1.5,10.7,1,12.4,2c0.1,0,0.2,0,0.4,0c0.8,0.1,1.4,0.2,1,39.3L359.6,222.5z M346.7,219.2
		L346.7,219.2c0.1,0,5.1,0.5,11.4,1.6c0.1-13.6,0.2-33.2-0.2-36.9c-0.3-0.2-5.8-3.6-11.8-2.1c-0.4,0.1-9.2,1.6-14.7,0.9
		c-0.1,14-0.2,34.2,0,36.2C331.8,219.2,334.3,221.2,346.7,219.2L346.7,219.2z"/>
	<path class="st0" d="M362.6,223.1c-0.1,0-0.3,0-0.4,0c-0.9,0-1.2-1.1-1.3-40.9v-0.3l0.2-0.2c2.2-2.1,9-2.5,9.8-2.6
		c3.6-0.2,9,1.4,9.2,1.5c2.9,0.3,5.9,0.3,8.8,0l0.2-0.2l0.5,0.2c0.6,0.2,1.4,0.6,1.5,37.8v0.4l-0.4,0.2c-6.6,4.1-11.6,1.9-12.4,1.5
		c-2.9-0.6-6-0.4-8.8,0.5C365.5,222.8,363.5,223.1,362.6,223.1z M362.3,182.5c0,14.4,0.2,35.6,0.6,39.1c2.1-0.3,4.2-0.9,6.1-1.9
		c3.2-1.1,6.5-1.3,9.8-0.6l0.2,0.1c0.2,0.1,4.6,2.4,10.7-1.2c-0.1-12.7-0.4-32.5-0.9-35.9c-3,0.3-6,0.2-8.9-0.1
		c-0.2,0-5.5-1.6-8.9-1.4C369.1,180.6,364.1,181.2,362.3,182.5L362.3,182.5z"/>
	<path class="st0" d="M356.2,217c-0.1,0-0.2,0-0.3-0.1c-3.2-1.5-6.9-1.9-11.5-1.4c-0.8,0.1-1.5,0.2-2.2,0.4c-2.6,0.5-5,1-7.9-0.2
		c-0.4-0.2-0.5-0.6-0.4-1c0.2-0.4,0.6-0.5,1-0.4c2.4,1,4.5,0.6,7,0.1c0.8-0.1,1.5-0.3,2.3-0.4c4.9-0.6,8.9-0.1,12.3,1.5
		c0.4,0.2,0.5,0.6,0.4,1c0,0,0,0,0,0C356.7,216.8,356.5,217,356.2,217z"/>
	<path class="st0" d="M338,210.6c-1.3,0-2.6-0.2-3.9-0.6c-0.4-0.1-0.6-0.5-0.5-0.9c0,0,0,0,0,0c0.1-0.4,0.5-0.6,0.9-0.5c0,0,0,0,0,0
		c2,0.7,4.2,0.7,6.3,0.1c0.4-0.1,0.8,0.1,0.9,0.4c0.1,0.4,0,0.8-0.4,0.9c0,0,0,0,0,0C340.3,210.4,339.1,210.6,338,210.6z"/>
	<path class="st0" d="M358.6,211.4c-0.1,0-0.3,0-0.4-0.1c-3.7-2.5-8.3-3.3-12.6-2.1c-0.4,0.1-0.8-0.1-0.9-0.5c0,0,0,0,0,0
		c-0.1-0.4,0.1-0.8,0.5-0.9c4.7-1.3,9.8-0.5,13.8,2.3c0.3,0.2,0.4,0.7,0.2,1C359.1,211.3,358.9,211.4,358.6,211.4z"/>
	<path class="st0" d="M357.9,205.1c-0.1,0-0.3,0-0.4-0.1c-3.8-2.4-6.5-2.5-10.9-2.1c-1.1,0.2-2.2,0.4-3.2,0.7
		c-2.9,0.8-5.9,1.6-8.9-0.3c-0.3-0.2-0.4-0.7-0.2-1c0.2-0.3,0.6-0.4,1-0.2c2.5,1.6,5,0.9,7.7,0.2c1.1-0.3,2.3-0.6,3.4-0.8
		c4.7-0.5,7.8-0.3,11.9,2.3c0.3,0.2,0.4,0.7,0.2,1C358.4,205,358.1,205.1,357.9,205.1z"/>
	<path class="st0" d="M356.9,187.1c-0.1,0-0.2,0-0.3-0.1c-4.2-2.3-9.3-2.7-13.8-0.9c-0.4,0.1-0.8-0.1-0.9-0.4c0,0,0,0,0,0
		c-0.1-0.4,0.1-0.8,0.4-0.9c4.9-1.9,10.3-1.5,14.9,1c0.4,0.2,0.5,0.6,0.3,1C357.4,187,357.2,187.1,356.9,187.1L356.9,187.1z"/>
	<path class="st0" d="M336.8,186.4c-1.2,0-2.4-0.3-3.5-0.8c-0.4-0.2-0.5-0.6-0.3-1c0,0,0,0,0,0c0.2-0.4,0.6-0.5,1-0.4c0,0,0,0,0,0
		c1.3,0.7,2.9,0.8,4.3,0.4c0.4-0.1,0.8,0.1,0.9,0.5c0.1,0.4-0.1,0.8-0.5,0.9C338.1,186.3,337.4,186.4,336.8,186.4z"/>
	<path class="st0" d="M362,186.2c-0.2,0-0.5-0.1-0.6-0.3c-0.2-0.3-0.2-0.8,0.2-1c5.7-4.1,11.6-2.7,17.3-1.4c2.3,0.6,4.6,1,7,1.2
		c0.4,0,0.7,0.4,0.7,0.8c0,0,0,0,0,0c0,0.4-0.3,0.7-0.7,0.7c0,0,0,0-0.1,0c-2.5-0.2-4.9-0.6-7.2-1.3c-5.4-1.3-11-2.6-16.1,1.1
		C362.3,186.1,362.2,186.2,362,186.2z"/>
	<path class="st0" d="M380.4,204.2c-0.6,0-1.3,0-2.2-0.1c-1.3-0.2-2.5-0.5-3.6-1.1c-2.7-1.2-5.8-2.5-10.9-0.6c-0.4,0.2-0.8,0-1-0.3
		c-0.2-0.4,0-0.8,0.3-1c0,0,0.1,0,0.1-0.1c5.6-2.1,9.3-0.5,11.9,0.7c1,0.5,2.1,0.8,3.2,1c3.3,0.2,3.7,0,5.7-0.6l0.6-0.2
		c0.4-0.1,0.8,0.1,0.9,0.5c0.1,0.3-0.1,0.7-0.4,0.8l-0.6,0.2C383.2,204,381.8,204.2,380.4,204.2z"/>
	<path class="st0" d="M381.5,211.9c-2.2-0.1-4.3-0.6-6.4-1.4c-1.1-0.4-2.3-0.7-3.4-1c-1.8-0.5-5.7-1-7.7,0.5c-0.3,0.2-0.8,0.1-1-0.2
		c-0.2-0.3-0.1-0.7,0.1-1c3-2.2,8.3-0.9,8.9-0.8c1.2,0.3,2.4,0.6,3.6,1c3.7,1.3,7.2,2.5,10.6-0.4c0.3-0.2,0.7-0.2,1,0.1
		c0.2,0.3,0.2,0.7-0.1,1C385.6,211.1,383.6,211.9,381.5,211.9z"/>
	<path class="st0" d="M364.1,218.4c-0.2,0-0.3,0-0.4-0.1c-0.3-0.2-0.4-0.7-0.2-1c1.2-1.4,2.9-2.4,4.7-2.8c2.2-0.4,4.4-0.4,6.6-0.1
		c0.4,0,0.7,0.4,0.6,0.8c0,0.4-0.4,0.7-0.8,0.6c0,0,0,0-0.1,0c-2-0.3-4-0.3-6,0.1c-1.5,0.3-2.8,1.1-3.8,2.2
		C364.5,218.3,364.3,218.5,364.1,218.4z"/>
	<path class="st0" d="M383.4,217c-1.3,0-2.7-0.2-4-0.5c-0.6-0.1-1.3-0.2-2-0.3c-0.4-0.1-0.7-0.4-0.6-0.8c0,0,0,0,0,0
		c0-0.4,0.4-0.7,0.8-0.6c0,0,0,0,0,0c0.7,0.1,1.4,0.2,2,0.4c1.6,0.4,3.3,0.5,5,0.4c0.4,0,0.8,0.2,0.8,0.6c0,0.4-0.2,0.8-0.6,0.8
		C384.4,216.9,383.9,217,383.4,217z"/>
	<path class="st0" d="M394.5,225.3c1.2-0.2-0.6-1.9,0.6-2.3c0,0-2.6-0.9-1.9-3.1c-2.2-0.7-0.9,2.7-2.4,2.7c-0.7,0-1.6-0.2-1.6-0.9
		c-3.6,1.4-6.1,1.2-9.7,0.4c-1.9,0-5-0.4-7,0.3c0,1.4,1,1.5,1.7,2.3C379.5,224.8,389.1,226.1,394.5,225.3"/>
	<path class="st0" d="M330.7,226.4c-1.3,0-2.6-0.1-3.9-0.2c-0.2,0-0.5-0.2-0.6-0.4c-0.1-0.3-0.1-0.7,0-1c0.2-0.6,0.1-0.6,0-0.7
		l-1-0.3l1-0.4c0.1,0,2-0.7,1.5-2.3l-0.1-0.4l0.3-0.1c0.2-0.1,0.4-0.1,0.6-0.1c1,0,1.1,1,1.2,1.6c0.1,0.6,0.2,0.9,0.4,0.9
		s1.1,0,1.1-0.5v-0.5l0.5,0.2c1.4,0.6,2.9,0.9,4.4,0.9c1.4,0,2.8-0.2,4.1-0.5c0.5,0,1,0,1.5,0c0.5,0,1.3-0.1,2-0.1c1,0,2,0.1,3,0.4
		l0.2,0.1v0.3c0,0.8-0.4,1.5-1.1,1.9c-0.2,0.1-0.4,0.3-0.5,0.4l-0.1,0.1h-0.1c-1.7,0-4,0.2-6.3,0.3
		C336,226.3,333.2,226.5,330.7,226.4"/>
	<path class="st0" d="M395.2,187.4c0-1.2-0.5-2.5-0.6-3.7c-0.7-0.8-1.5-1.4-2.5-1.6c-1.2,0-0.6,1.4-0.5,2.4c0.7,5-1,18.2,0.8,18.8
		c0.6-0.2,0.1-4.8,0.3-5.5c0.4-1.3,0-3.7,0.1-5.2c1.8-0.6-0.5-4,0.7-4c1.2-0.6-0.9,3.9,1.5,3.2C395.8,190.4,395.2,188.6,395.2,187.4
		"/>
	<path class="st0" d="M287.8,243.7c-1.9,0-3.3-1.5-3.3-3.4c0-0.9,0.3-1.7,0.9-2.3c1.3-1.3,3.4-1.3,4.7,0c1.3,1.3,1.3,3.4,0,4.7
		C289.5,243.3,288.7,243.7,287.8,243.7"/>
	<path class="st0" d="M428.5,245.1c-1.8,0-3.3-1.5-3.3-3.3s1.5-3.3,3.3-3.3s3.3,1.5,3.3,3.3S430.4,245.1,428.5,245.1"/>
	<path class="st0" d="M358.2,257.8c-43.3,0-78.4-35.1-78.4-78.4s35.1-78.4,78.4-78.4s78.4,35.1,78.4,78.4
		C436.6,222.7,401.5,257.8,358.2,257.8z M358.2,102.8c-42.3,0-76.7,34.3-76.7,76.7s34.3,76.7,76.7,76.7s76.7-34.3,76.7-76.7
		c0,0,0,0,0,0C434.9,137.2,400.6,102.9,358.2,102.8L358.2,102.8z"/>
	<path class="st0" d="M342.8,196.5c0,1.8,0.1,1.8,1.2,1.9l0.5,0.1c0.1,0.1,0.1,0.5,0,0.5c-0.9,0-1.7-0.1-2.5-0.1s-1.8,0-2.6,0.1
		c-0.2-0.1-0.2-0.4,0-0.5l0.5-0.1c1.1-0.1,1.2-0.2,1.2-1.9v-5.8c0-1.2,0-1.6-0.9-1.7l-0.9-0.1c-0.1-0.1-0.1-0.3,0-0.4
		c1.2-0.2,2.4-0.6,3.5-1.1c0.1,0,0.2,0.1,0.2,0.2c0,0.4-0.1,1.5-0.1,2.2L342.8,196.5z"/>
	<path class="st0" d="M351.5,187.3c1.2,0,2.3,0.5,3,1.4c0.7,1,1.1,2.2,1,3.5c0,2.3-1.1,4.4-2.9,5.8c-1.3,1-2.8,1.7-4.4,2
		c-0.2-0.1-0.2-0.4-0.1-0.5c0,0,0,0,0,0c0.9-0.3,1.8-0.8,2.6-1.3c1.4-1.1,2.6-2.9,2.7-6.3c0-2.1-0.5-3.9-1.9-3.9
		c-0.8,0-1.6,0.8-1.6,2.3c0,1.5,0.7,3,1.8,3c0.2,0,0.4,0,0.6-0.1c0.1,0.1,0.2,0.3,0.1,0.4c-0.5,0.3-1.1,0.5-1.7,0.5
		c-1.6,0-2.9-1.3-2.9-2.9c0-0.1,0-0.2,0-0.3C347.9,188.9,349.5,187.3,351.5,187.3C351.6,187.3,351.6,187.3,351.5,187.3"/>
	<path class="st0" d="M369.9,197.4c1.3,0,1.6-0.1,2.2-1.1c0.2-0.1,0.3,0,0.5,0.1c-0.1,0.9-0.4,1.8-0.9,2.7c-0.3,0-0.7,0-1.1,0
		s-0.8,0-1.2,0h-3c-1,0-1.6,0-2,0.1c-0.1-0.1-0.2-0.2-0.1-0.3c0.9-0.8,1.9-1.7,2.7-2.6c1.4-1.4,2.6-3.2,2.6-5.1
		c0.2-1.2-0.7-2.3-1.9-2.5c-0.1,0-0.2,0-0.2,0c-1,0.1-1.9,0.7-2.2,1.6c-0.2,0.1-0.4,0-0.5-0.2c0,0,0,0,0,0c0.6-1.5,2.1-2.5,3.8-2.5
		c1.7-0.1,3.1,1.2,3.2,2.8c0,0.1,0,0.1,0,0.2c0,1.2-0.5,2.3-2.1,4.1l-1.5,1.6c-0.8,0.8-0.9,1.1-0.9,1.2s0.1,0.2,0.6,0.2L369.9,197.4
		z"/>
	<path class="st0" d="M382.4,193.3c0,2.9-1.1,6-3.9,6s-3.9-3.1-3.9-6s1.1-5.9,3.9-5.9S382.4,190.5,382.4,193.3 M376.7,193.3
		c0,1.7,0.2,5.2,1.8,5.2s1.8-3.5,1.8-5.2s-0.2-5.2-1.8-5.2S376.7,191.6,376.7,193.3"/>
</g>
</svg>
